<?xml version="1.0"?>
<svg xmlns="http://www.w3.org/2000/svg" xmlns:xlink="http://www.w3.org/1999/xlink" xmlns:svgjs="http://svgjs.com/svgjs" version="1.1" width="512" height="512" x="0" y="0" viewBox="0 0 512 512" style="enable-background:new 0 0 512 512" xml:space="preserve" class=""><g>
<g xmlns="http://www.w3.org/2000/svg">
	<g>
		<path d="M473.621,462.817c0-32.179-23.256-54.801-65.489-63.707l-72.361-16.434c-17.762-6.007-21.147-11.279-21.147-18.867    v-36.455c14.209-7.941,26.292-19.245,35.163-32.831h17.689c17.784,0,32.785-12.116,37.2-28.524h19.991    C449.664,266,470,245.664,470,220.667v-33.333C470,162.336,449.664,142,424.667,142H406v-6C406,61.009,344.991,0,270,0h-28    c-74.991,0-136,61.009-136,136v6H87.333C62.336,142,42,162.336,42,187.333v33.333C42,245.664,62.336,266,87.333,266h62.102    c7.108,26.372,24.754,48.463,48.128,61.459c-0.133,0.65-0.203,1.324-0.203,2.014v34.337c0,7.587-3.385,12.86-21.148,18.867    l-72.36,16.434c-42.233,8.905-65.489,31.528-65.489,63.707V502c0,5.523,4.477,10,10,10h293.75c5.523,0,10-4.477,10-10    s-4.477-10-10-10H58.362v-29.183c0-22.362,16.716-37.217,49.685-44.152c0.052-0.011,0.104-0.022,0.156-0.034l63.882-14.508    l78.78,47.135c1.581,0.945,3.357,1.418,5.134,1.418c1.777,0,3.554-0.473,5.134-1.418l78.775-47.132l63.87,14.506    c0.052,0.012,0.104,0.023,0.156,0.034c32.968,6.935,49.685,21.79,49.685,44.156L453.633,492h-30.646c-5.523,0-10,4.477-10,10    s4.477,10,10,10h40.65c2.653,0,5.197-1.054,7.073-2.931c1.875-1.876,2.928-4.421,2.927-7.074L473.621,462.817z M406,162h18.667    C438.635,162,450,173.365,450,187.333v33.333C450,234.635,438.635,246,424.667,246H406V162z M106,246H87.333    C73.365,246,62,234.635,62,220.667v-33.333C62,173.365,73.365,162,87.333,162H106V246z M346,178.938h-2.391    c-16.446,0-32.101-5.096-45.195-14.511c10.615-7.209,20.558-15.419,29.744-24.605c3.905-3.904,3.905-10.236,0-14.141    c-3.905-3.905-10.237-3.905-14.143,0c-34.875,34.876-81.245,54.083-130.567,54.083H166V140c0-44.112,35.888-80,80-80h20    c44.112,0,80,35.888,80,80V178.938z M367.476,274.524h-7.621c1.028-2.785,1.93-5.63,2.71-8.524h20.48    C379.745,271.119,374.006,274.524,367.476,274.524z M146.185,246H126v-94v-16c0-63.962,52.038-116,116-116h28    c63.962,0,116,52.038,116,116v16v94h-20.185c0.118-1.986,0.185-3.985,0.185-6V140c0-55.14-44.86-100-100-100h-20    c-55.14,0-100,44.86-100,100v100C146,242.015,146.067,244.014,146.185,246z M166,240v-40.236h17.448    c27.011,0,53.361-5.241,78.316-15.578c6.292-2.606,12.417-5.506,18.367-8.69c17.676,15.168,39.94,23.442,63.478,23.442H346V240    c0,12.357-2.819,24.066-7.843,34.524h-45.021c-5.523,0-10,4.477-10,10s4.477,10,10,10h31.33C309.853,310.183,289.057,320,266,320    h-20C201.888,320,166,284.112,166,240z M256,431.023l-59.109-35.366c11.466-6.117,20.469-15.442,20.469-31.847v-27.996    C226.437,338.532,236.05,340,246,340h20c9.944,0,19.551-1.466,28.623-4.181v27.991c0,16.409,9.008,25.735,20.478,31.852    L256,431.023z" fill="#fe4633" data-original="#000000" style="" class=""/>
	</g>
</g>
<g xmlns="http://www.w3.org/2000/svg">
	<g>
		<path d="M263.07,277.45c-1.86-1.86-4.44-2.92-7.07-2.92c-2.63,0-5.21,1.06-7.07,2.92c-1.86,1.87-2.93,4.44-2.93,7.07    c0,2.64,1.07,5.21,2.93,7.07c1.86,1.87,4.44,2.93,7.07,2.93c2.63,0,5.21-1.06,7.07-2.93c1.86-1.86,2.93-4.43,2.93-7.07    C266,281.89,264.93,279.31,263.07,277.45z" fill="#fe4633" data-original="#000000" style="" class=""/>
	</g>
</g>
<g xmlns="http://www.w3.org/2000/svg">
	<g>
		<path d="M388.72,494.93c-1.86-1.86-4.43-2.93-7.07-2.93c-2.63,0-5.21,1.07-7.07,2.93s-2.93,4.44-2.93,7.07s1.07,5.21,2.93,7.07    c1.86,1.86,4.44,2.93,7.07,2.93c2.64,0,5.21-1.07,7.07-2.93c1.87-1.86,2.93-4.44,2.93-7.07S390.59,496.79,388.72,494.93z" fill="#fe4633" data-original="#000000" style="" class=""/>
	</g>
</g>
<g xmlns="http://www.w3.org/2000/svg">
</g>
<g xmlns="http://www.w3.org/2000/svg">
</g>
<g xmlns="http://www.w3.org/2000/svg">
</g>
<g xmlns="http://www.w3.org/2000/svg">
</g>
<g xmlns="http://www.w3.org/2000/svg">
</g>
<g xmlns="http://www.w3.org/2000/svg">
</g>
<g xmlns="http://www.w3.org/2000/svg">
</g>
<g xmlns="http://www.w3.org/2000/svg">
</g>
<g xmlns="http://www.w3.org/2000/svg">
</g>
<g xmlns="http://www.w3.org/2000/svg">
</g>
<g xmlns="http://www.w3.org/2000/svg">
</g>
<g xmlns="http://www.w3.org/2000/svg">
</g>
<g xmlns="http://www.w3.org/2000/svg">
</g>
<g xmlns="http://www.w3.org/2000/svg">
</g>
<g xmlns="http://www.w3.org/2000/svg">
</g>
</g></svg>
